# xmcd CD database file
#
# Track frame offsets:
#	150
#	23060
#	63893
#	80704
#	114701
#	133774
#
# Disc length: 2226 seconds
#
# Revision: 0
# Processed by: cddbd v1.5.1PL0 Copyright (c) Steve Scherf et al.
# Submitted via: CDex 1.51
#
DISCID=4c08b006
DTITLE=Gerry Weill - The Message
DYEAR=1900
DGENRE=Jazz
TTITLE0=The joy within yourself
TTITLE1=The bull´s problem
TTITLE2=The Message
TTITLE3=Johnny´s bag
TTITLE4=What is a man
TTITLE5=Little man
EXTD=
EXTT0=
EXTT1=
EXTT2=
EXTT3=
EXTT4=
EXTT5=
PLAYORDER=
